{
  "accessors": [
    {
      "bufferView": 2,
      "componentType": 5126,
      "count": 2759,
      "max": [
        1.59375,
        1.7783199548721313,
        3.982422113418579
      ],
      "min": [
        -1.7802729606628418,
        -1.8115240335464478,
        -0.00862099975347519
      ],
      "type": "VEC3"
    },
    {
      "bufferView": 2,
      "byteOffset": 33108,
      "componentType": 5126,
      "count": 2759,
      "max": [
        0.9981412887573242,
        0.9981156587600708,
        0.9999916553497314
      ],
      "min": [
        -0.9991656541824341,
        -0.9999500513076782,
        -0.9999451637268066
      ],
      "type": "VEC3"
    },
    {
      "bufferView": 3,
      "componentType": 5126,
      "count": 2759,
      "max": [
        0.9998512864112854,
        0.9999310970306396,
        0.9999786019325256,
        1.0
      ],
      "min": [
        -0.9818116426467896,
        -0.9999333024024963,
        -0.8587213754653931,
        -1.0
      ],
      "type": "VEC4"
    },
    {
      "bufferView": 1,
      "componentType": 5126,
      "count": 2759,
      "max": [
        0.9907230138778687,
        0.9894639849662781
      ],
      "min": [
        0.00814799964427948,
        0.016112999990582466
      ],
      "type": "VEC2"
    },
    {
      "bufferView": 0,
      "componentType": 5125,
      "count": 15039,
      "type": "SCALAR"
    }
  ],
  "asset": {
    "extras": {
      "author": "Tigerar1 (https://sketchfab.com/allanromanreyes)",
      "license": "SKETCHFAB Standard (https://sketchfab.com/licenses)",
      "source": "https://sketchfab.com/3d-models/squash-86bd4825c7c0452cafb54155e1401619",
      "title": "Squash"
    },
    "generator": "Sketchfab-16.15.0",
    "version": "2.0"
  },
  "bufferViews": [
    {
      "buffer": 0,
      "byteLength": 60156,
      "name": "floatBufferViews",
      "target": 34963
    },
    {
      "buffer": 0,
      "byteLength": 22072,
      "byteOffset": 60156,
      "byteStride": 8,
      "name": "floatBufferViews",
      "target": 34962
    },
    {
      "buffer": 0,
      "byteLength": 66216,
      "byteOffset": 82228,
      "byteStride": 12,
      "name": "floatBufferViews",
      "target": 34962
    },
    {
      "buffer": 0,
      "byteLength": 44144,
      "byteOffset": 148444,
      "byteStride": 16,
      "name": "floatBufferViews",
      "target": 34962
    }
  ],
  "buffers": [
    {
      "byteLength": 192588,
      "uri": "scene.bin"
    }
  ],
  "images": [
    {
      "uri": "textures/gigasquash_body_default_color_baseColor.png"
    },
    {
      "uri": "textures/gigasquash_body_default_color_normal.png"
    }
  ],
  "materials": [
    {
      "doubleSided": true,
      "name": "gigasquash_body_default_color",
      "normalTexture": {
        "index": 1
      },
      "pbrMetallicRoughness": {
        "baseColorTexture": {
          "index": 0
        },
        "metallicFactor": 0.0,
        "roughnessFactor": 0.9686983083985342
      }
    }
  ],
  "meshes": [
    {
      "name": "Object_0",
      "primitives": [
        {
          "attributes": {
            "NORMAL": 1,
            "POSITION": 0,
            "TANGENT": 2,
            "TEXCOORD_0": 3
          },
          "indices": 4,
          "material": 0,
          "mode": 4
        }
      ]
    }
  ],
  "nodes": [
    {
      "children": [
        1
      ],
      "matrix": [
        1.0,
        0.0,
        0.0,
        0.0,
        0.0,
        2.220446049250313e-16,
        -1.0,
        0.0,
        0.0,
        1.0,
        2.220446049250313e-16,
        0.0,
        0.0,
        0.0,
        0.0,
        1.0
      ],
      "name": "Sketchfab_model"
    },
    {
      "children": [
        2
      ],
      "name": "gigasquash_body_default_mesh.obj.cleaner.materialmerger.gles"
    },
    {
      "mesh": 0,
      "name": "Object_2"
    }
  ],
  "samplers": [
    {
      "magFilter": 9729,
      "minFilter": 9987,
      "wrapS": 10497,
      "wrapT": 10497
    }
  ],
  "scene": 0,
  "scenes": [
    {
      "name": "Sketchfab_Scene",
      "nodes": [
        0
      ]
    }
  ],
  "textures": [
    {
      "sampler": 0,
      "source": 0
    },
    {
      "sampler": 0,
      "source": 1
    }
  ]
}
